<svg viewBox="0 0 1440.66 891.18" xmlns="http://www.w3.org/2000/svg" xmlns:xlink="http://www.w3.org/1999/xlink"><linearGradient id="a" gradientTransform="matrix(1 0 0 -1 -274 529.43)" gradientUnits="userSpaceOnUse" x1="1438.13" x2="1043.13" y1="83.64" y2="96.64"><stop offset="0" stop-color="#1b2033"/><stop offset=".57" stop-color="#cfb16d"/><stop offset=".87" stop-color="#10121e"/></linearGradient><path d="m890.05 890.68c-235.92 0-462.18-93.79-629.01-260.73-166.82-166.94-260.54-393.36-260.54-629.45h1440.16m-550.61 890.18c145.81 0 285.66-57.96 388.77-161.14 103.1-103.18 161.03-243.12 161.03-389.04 0-90.17-35.8-176.65-99.52-240.42-63.71-63.76-150.13-99.58-240.24-99.58v340m-210.04 550.18v-890.18m210.03 0c-55.7 0-109.13 22.14-148.52 61.56s-61.52 92.88-61.52 148.62h210.03m-210.03 0c0 34.43 13.67 67.45 38 91.79 24.33 24.35 57.32 38.02 91.73 38.02m0 0c10.55 0 20.99-2.08 30.73-6.12s18.6-9.96 26.05-17.42c7.46-7.46 13.37-16.32 17.41-26.07 4.03-9.75 6.11-20.2 6.11-30.75m-80.31 80.36v-129.82m80.31 49.45c0-6.49-1.28-12.92-3.76-18.92s-6.12-11.45-10.71-16.04-10.04-8.24-16.03-10.72c-5.99-2.49-12.42-3.76-18.91-3.76m49.42 49.45h-80.31m30.89-49.45c-4.06 0-8.07.8-11.82 2.35s-7.15 3.83-10.02 6.7-5.14 6.28-6.7 10.03c-1.55 3.75-2.35 7.77-2.35 11.83m30.89-30.91v49.45m-30.89-18.55c0 4.92 1.95 9.63 5.43 13.11s8.19 5.43 13.1 5.43m-18.53-18.54h30.89m-12.36 18.54v-18.54m0 18.54c3.28 0 6.42-1.3 8.73-3.62 2.32-2.32 3.62-5.46 3.62-8.74m-12.35 0h12.35m0 0c0-.81-.16-1.61-.47-2.36s-.77-1.43-1.34-2.01c-.57-.57-1.26-1.03-2-1.34-.75-.31-1.55-.47-2.36-.47v6.18m-154.44 93.04h550.11m-401.84-93.03c0-.81.16-1.62.47-2.37s.77-1.43 1.34-2.01c.57-.57 1.26-1.03 2-1.34.75-.31 1.55-.47 2.36-.47" fill="none" stroke="url(#a)"/></svg>