<svg width="24" height="24" viewBox="0 0 24 24" fill="#fff" xmlns="http://www.w3.org/2000/svg">
<path d="M12 24C5.37931 24 0 18.6207 0 12C0 5.37931 5.37931 0 12 0C18.6207 0 24 5.37931 24 12C24 18.6207 18.6207 24 12 24ZM12 1.24138C6.06207 1.24138 1.24138 6.06207 1.24138 12C1.24138 17.9379 6.06207 22.7586 12 22.7586C17.9379 22.7586 22.7586 17.9379 22.7586 12C22.7586 6.06207 17.9379 1.24138 12 1.24138Z" fill="white"/>
<path d="M11.5853 15.1053C11.4197 15.1053 11.2542 15.0225 11.1301 14.8984L8.41975 12.0018C8.19216 11.7535 8.19216 11.3604 8.46113 11.1328C8.7094 10.9053 9.10251 10.9053 9.33009 11.1742L11.5853 13.5742L15.9094 9.06388C16.137 8.8156 16.5301 8.8156 16.7784 9.04319C17.0266 9.27077 17.0266 9.66388 16.7991 9.91215L12.0404 14.919C11.9163 15.0432 11.7508 15.1053 11.5853 15.1053Z" fill="white"/>
</svg>
