<?xml version="1.0" encoding="UTF-8"?>
<svg id="a" data-name="Layer 1" xmlns="http://www.w3.org/2000/svg"
     viewBox="0 0 91.97 60">
  <rect x="21.97" width="60" height="60" fill="none"/>
  <path
    d="M27.21,35.61c.72-.24,1.54-.13,2.18,.37h0c1.03,.78,1.22,2.26,.42,3.29-.11,.14-.23,.26-.37,.37l.11,.2-.2-.12c-.82,.6-1.95,.63-2.81,0l-9.12,5.23c.18,.68,.06,1.43-.4,2.04-.8,1.02-2.28,1.21-3.31,.41-.06-.05-.12-.1-.17-.16h0s0,0,0,0c-.01-.01-.03-.03-.04-.04l-.03,.02,.02-.03c-.82-.82-.93-2.14-.2-3.08,.6-.77,1.58-1.07,2.48-.83l2.61-4.47H4.49c-.08,.15-.16,.31-.28,.46-.8,1.03-2.28,1.21-3.31,.42-.31-.24-.54-.55-.69-.88H.12l.08-.04c-.33-.77-.26-1.67,.28-2.38,.33-.41,.77-.69,1.25-.82v-11.09c-.1-.05-.2-.1-.29-.18-.65-.5-.77-1.43-.27-2.07,.5-.65,1.43-.76,2.08-.27,.51,.39,.69,1.06,.49,1.63l8.3,4.77h0c.68-.98,1.81-1.61,3.09-1.61,1.19,0,2.24,.55,2.92,1.4h0l2.69-1.59-3.77-6.78c-1.36,.68-3.06,.58-4.35-.41-1.79-1.38-2.11-3.93-.73-5.7,1.39-1.78,3.95-2.1,5.74-.73,1.49,1.14,1.96,3.11,1.27,4.76l6.68,4.04c.83-.78,2.14-.88,3.07-.15,1.02,.79,1.22,2.26,.42,3.29-.42,.54-1.05,.84-1.68,.89l-2.9,4.97,2.71,4.86Zm-15.66-6.11h0c-.09,.31-.14,.64-.14,.98,0,.51,.11,1,.3,1.45h0s-7.51,4.46-7.51,4.46c-.12-.15-.25-.29-.41-.41-.25-.2-.54-.33-.83-.41v-11.01l8.59,4.93Zm5.17,1.56h0s0,0,0,0c.07-.18,.11-.37,.11-.58h0c0-.06,0-.11,0-.15h0s0,0,0,0c-.04-.44-.25-.82-.56-1.09h0c-.3-.27-.68-.43-1.11-.43-.52,0-.98,.23-1.29,.6-.25,.29-.4,.66-.4,1.07,0,.04,0,.09,0,.12l.2,.11h0s0,0,0,0c0,.02,0,.04,0,.06l-.15,.09c.17,.74,.84,1.28,1.63,1.28h0c.73,0,1.34-.46,1.57-1.09Zm-4.34,1.9h0s0,0,0,0l-7.69,4.57v.06h14.4l1.65-2.82-2.92-1.67h0s0,0,0,0c-.68,.68-1.63,1.1-2.67,1.1-1.1,0-2.1-.48-2.77-1.24Zm6.14-.87h0s2.82,1.62,2.82,1.62l1.74-2.98-1.72-3.1-2.68,1.59h0s0,0,0,0c.14,.39,.22,.81,.22,1.25,0,.58-.13,1.12-.37,1.61Zm-.24-13.32h0c-.09,.11-.18,.21-.29,.3h0s3.82,6.87,3.82,6.87l3.14-1.87c-.11-.41-.12-.86,0-1.28l-6.67-4.04h-.01Zm4.13,8.25l1.39,2.49,2.33-3.99c-.12-.06-.24-.13-.35-.22-.05-.03-.09-.08-.13-.12h0s-.03-.04-.05-.05l-3.18,1.89Zm3.2,10.56l-3.82-2.19-1.29,2.21h5.11s0-.02,0-.02Zm-5.82,1.24l-2.96,5.06h0l8.83-5.06h-5.87Zm6.28-2.4s.01-.02,.01-.02h0s.03-.03,.04-.04c.02-.02,.04-.04,.06-.06l-2.4-4.31-1.36,2.35,3.65,2.09Zm17.74-5.82c.76,.24,1.57,.36,2.44,.36h0s9.8,0,9.8,0v-5.29h18.04c1,0,1.78-.22,2.33-.65,.55-.44,.83-1.01,.83-1.74s-.27-1.31-.83-1.73c-.55-.43-1.33-.64-2.33-.64h-15.21l4.29-5.42h10.33c1.63,0,3.07,.2,4.35,.58,1.27,.39,2.35,.92,3.23,1.6,.88,.69,1.54,1.51,2,2.46h0c.46,.95,.69,2.01,.69,3.17s-.23,2.21-.69,3.16c-.46,.94-1.13,1.75-2.02,2.41-.88,.67-1.96,1.18-3.24,1.56-1.27,.37-2.72,.56-4.35,.56h-10.95v5.33h-5.74s-10.52,0-10.52,0c-1.81,0-3.5-.27-5.04-.81-1.55-.54-2.88-1.29-3.99-2.23-1.12-.94-1.99-2.07-2.63-3.36-.64-1.3-.95-2.71-.95-4.22s.32-2.9,.95-4.15c.64-1.26,1.51-2.33,2.63-3.24,1.12-.9,2.44-1.59,3.99-2.09,1.54-.48,3.22-.73,5.04-.73h12.56l-4.16,5.42h-8.4c-.88,0-1.69,.13-2.44,.37-.75,.25-1.4,.6-1.94,1.05-.54,.44-.98,.98-1.29,1.6-.31,.62-.47,1.31-.47,2.05s.16,1.43,.46,2.04c.3,.61,.73,1.14,1.28,1.57,.56,.44,1.21,.77,1.96,1.01Zm40.51-15.11v20.82h6.48V15.48h-6.48ZM15.47,24.44c.77-.99,.59-2.42-.41-3.18-1-.77-2.43-.59-3.2,.41-.77,.99-.59,2.42,.41,3.18,1,.77,2.43,.59,3.2-.41Zm-4.98-4.67c-.41,.52-1.16,.62-1.69,.21-.53-.41-.62-1.16-.22-1.68,.41-.52,1.16-.62,1.69-.21,.53,.41,.62,1.16,.22,1.68Zm2.5,22.11c.53,.41,1.28,.31,1.69-.21,.41-.52,.31-1.28-.22-1.68-.53-.41-1.28-.31-1.69,.21-.41,.52-.31,1.28,.22,1.68Zm-3.9-18.14c-.33-.25-.38-.71-.13-1.04,.25-.32,.72-.38,1.04-.13,.33,.25,.38,.71,.13,1.04-.25,.32-.72,.38-1.04,.13Zm1.81,19.69c-.25,.32-.19,.79,.13,1.04,.32,.25,.79,.19,1.04-.13,.25-.32,.19-.79-.13-1.04-.32-.25-.79-.19-1.04,.13Zm-.69-2.41c.19-.24,.53-.29,.78-.1h0c.24,.19,.29,.53,.1,.77-.19,.24-.53,.28-.78,.1-.24-.19-.29-.53-.1-.77Zm29.84,.19l-.72,.94h-1.29v2.66h-1.12v-2.66h-1.7l.73-.94h4.11Zm3.82,3.6l.72-.92h0s-3.08,0-3.08,0v-.49h2.22l.64-.82h-2.87v-.43h2.34l.72-.94h-4.19v3.6h3.48Zm5.71-.92l-.72,.92h-1.82c-.31,0-.6-.05-.87-.14-.27-.09-.5-.22-.69-.38-.19-.16-.34-.36-.45-.58-.11-.22-.17-.47-.17-.73s.06-.5,.17-.72c.11-.22,.26-.4,.45-.56,.19-.16,.42-.28,.69-.36,.27-.09,.56-.13,.87-.13h2.54l-.72,.94h-1.82c-.15,0-.29,.02-.42,.06-.13,.04-.24,.1-.33,.18-.09,.08-.17,.17-.22,.28-.05,.11-.08,.23-.08,.35s.03,.25,.08,.35c.05,.11,.13,.2,.22,.27,.1,.08,.21,.13,.34,.17,.13,.04,.27,.06,.42,.06h2.54Zm3.67,.93h1.11v-3.6h-1.11v1.27h-2.15v-1.27h-1.12v3.6h1.12v-1.39h2.15v1.39Zm5.47,.06c-.07,0-.14-.01-.21-.03-.07-.02-.15-.08-.23-.16l-2.22-1.98v2.11h-1.02v-2.99c0-.12,.02-.22,.05-.31,.03-.09,.08-.16,.13-.21,.06-.05,.12-.09,.2-.12,.07-.03,.15-.04,.23-.04,.07,0,.14,.01,.21,.03,.07,.02,.15,.08,.24,.16l2.22,1.98v-2.11h1.02v2.98c0,.12-.02,.22-.05,.31-.03,.09-.08,.16-.13,.21-.06,.06-.12,.1-.2,.12-.08,.03-.15,.04-.23,.04Zm5.79-3.27c-.44-.3-1.1-.45-1.98-.45h0c-.88,0-1.55,.15-1.98,.45-.44,.3-.66,.76-.66,1.41s.22,1.12,.66,1.41c.44,.3,1.1,.45,1.99,.45s1.55-.15,1.99-.45c.44-.3,.66-.77,.66-1.41s-.22-1.11-.66-1.41Zm-1.27,2.3c-.19,.02-.43,.03-.71,.03s-.52-.01-.71-.03-.35-.07-.47-.14c-.12-.07-.21-.16-.26-.28-.05-.12-.08-.28-.08-.47s.03-.35,.08-.47c.05-.12,.14-.21,.26-.28,.12-.07,.28-.11,.47-.13,.2-.02,.43-.03,.71-.03s.52,.01,.71,.03c.19,.02,.35,.07,.47,.13,.12,.07,.21,.16,.26,.28,.05,.12,.08,.28,.08,.47s-.03,.35-.08,.47c-.05,.12-.14,.21-.26,.28-.12,.07-.28,.11-.47,.14Zm6.42-.01l-.72,.92h-3.2v-3.6h1.12v2.67h2.8Zm4.75-2.29c-.44-.3-1.1-.45-1.98-.45-.88,0-1.54,.15-1.99,.45-.44,.3-.66,.76-.66,1.41s.22,1.12,.66,1.41c.44,.3,1.1,.45,1.99,.45s1.55-.15,1.99-.45c.44-.3,.66-.77,.66-1.41s-.22-1.11-.66-1.41Zm-1.27,2.3c-.2,.02-.43,.03-.71,.03s-.52-.01-.71-.03c-.19-.02-.35-.07-.47-.14-.12-.07-.21-.16-.26-.28-.05-.12-.08-.28-.08-.47s.03-.35,.08-.47c.05-.12,.14-.21,.26-.28,.12-.07,.28-.11,.47-.13,.19-.02,.43-.03,.71-.03s.52,.01,.71,.03c.2,.02,.35,.07,.47,.13,.12,.07,.21,.16,.26,.28,.05,.12,.08,.28,.08,.47s-.03,.35-.08,.47c-.06,.12-.14,.21-.26,.28-.12,.07-.28,.11-.47,.14Zm4.73-1.34h0l-.67,.8h1.87v.52h-1.37c-.15,0-.3-.02-.43-.06-.13-.04-.24-.1-.34-.18s-.17-.17-.22-.27c-.05-.11-.08-.22-.08-.35s.03-.25,.08-.35c.05-.11,.13-.2,.22-.28,.1-.08,.21-.14,.34-.18,.13-.04,.27-.06,.42-.06h1.87l.72-.94h-2.59c-.31,0-.6,.04-.87,.13-.27,.08-.5,.2-.69,.36-.19,.16-.34,.34-.45,.56-.11,.22-.17,.46-.17,.72s.05,.5,.17,.73c.11,.23,.26,.42,.45,.58,.19,.16,.42,.29,.69,.38,.27,.09,.56,.14,.87,.14h2.48v-2.25h-2.31s0,0,0,0Zm2.98,2.25h1.12v-3.6h-1.12v3.6Zm6.02-.92l-.72,.92h-3.48v-3.6h4.19l-.72,.94h-2.34v.43h2.87l-.64,.82h-2.22v.49h3.08Zm4.75-.99c-.23-.16-.57-.24-1.01-.24h0s-1.97,0-1.97,0c-.13,0-.23-.02-.29-.06-.06-.04-.1-.1-.1-.2s.03-.16,.1-.19c.06-.04,.16-.05,.29-.05h2.51l.72-.94h-3.14c-.27,0-.51,.03-.71,.08-.2,.05-.36,.13-.48,.23-.12,.1-.22,.21-.28,.35-.06,.14-.09,.29-.09,.46,0,.15,.03,.29,.08,.42,.05,.13,.14,.24,.25,.32,.11,.09,.25,.16,.42,.21,.17,.05,.37,.08,.61,.08h1.97c.13,0,.23,.02,.29,.06,.06,.04,.09,.11,.09,.2s-.03,.16-.09,.2c-.06,.04-.16,.06-.29,.06h-2.74l-.72,.92h3.37c.27,0,.51-.03,.71-.08,.2-.06,.36-.13,.48-.23,.13-.1,.22-.22,.28-.37,.06-.15,.09-.31,.09-.5,0-.33-.11-.58-.35-.74Z"
    fill="#9b9b9b" fill-rule="evenodd"/>
</svg>
