<?xml version="1.0" encoding="UTF-8"?>
<svg id="a" data-name="Layer 1" xmlns="http://www.w3.org/2000/svg"
     viewBox="0 0 139.9 60">
  <rect x="47.25" width="60" height="60" fill="none"/>
  <path
    d="M21.81,11.8C11.9,9.9,2.31,16.55,.35,26.63c-.24,1.22-.35,2.44-.35,3.64,0,0,.03,.03,.03,0C1.87,17.7,12.01,11.5,21.24,13.27c9.26,1.77,15.32,10.86,13.5,20.29-2.58,12.25-12.41,14.34-14.31,14.91-.03,0-.03,.05,0,.05,7.69-.98,14.26-6.87,15.81-15.02,1.96-10.1-4.51-19.8-14.42-21.7Z"
    fill="#9b9b9b"/>
  <path
    d="M5.59,41.35c.73-.98,10.4-13.66,20.51-18.17-.9,2.01-4.26,5.57-3.99,5.68,.27,.08,2.31-1.44,2.31-1.44,0,0-.49,1-.41,1.14,.08,.14,4.59-5.05,5.92-8.01,.35-.62-7.22-.92-12.3,1.44-.3,.3,.62,.16,.62,.16l-1.49,1.01s-.24,.33,.22,.24c.46-.08,4.92-1.77,7.63-1.44C9.45,29.86,5.87,40.37,5.59,41.35c0,.03-.03,0,0,0Z"
    fill="#9b9b9b"/>
  <path d="M50,29.69v-11.69h8.28v1.81h-6.4v3.57h6.08v1.74h-6.08v4.57h-1.87Z"
        fill="#9b9b9b"/>
  <path
    d="M65.93,21.44v4.42c0,1.41,.81,2.37,2.24,2.37,1.35,0,2.3-1.12,2.3-2.49v-4.3h1.72v8.26h-1.56l-.1-1.22c-.81,.93-1.7,1.33-2.84,1.33-2.03,0-3.47-1.45-3.47-3.95v-4.44h1.72v.02Z"
    fill="#9b9b9b"/>
  <path
    d="M81.62,19.06v2.39h2.41v1.49h-2.43v3.94c0,.87,.39,1.35,1.2,1.35,.33,0,.71-.12,1.06-.29l.5,1.47c-.56,.25-1.06,.37-1.66,.37-1.79,.06-2.82-.96-2.82-2.91v-3.94h-1.58v-1.49h1.58v-2.2l1.74-.17Z"
    fill="#9b9b9b"/>
  <path
    d="M91.79,21.44v4.42c0,1.41,.81,2.37,2.24,2.37,1.35,0,2.3-1.12,2.3-2.49v-4.3h1.72v8.26h-1.56l-.1-1.22c-.81,.93-1.7,1.33-2.84,1.33-2.03,0-3.47-1.45-3.47-3.95v-4.44h1.72v.02Z"
    fill="#9b9b9b"/>
  <path
    d="M106.41,21.44l.12,1.08c.6-1.06,1.54-1.27,2.43-1.27,.81,0,1.56,.29,2.04,.69l-.79,1.5c-.42-.33-.81-.5-1.45-.5-1.2,0-2.22,.73-2.22,2.26v4.46h-1.72v-8.24h1.58v.02Z"
    fill="#9b9b9b"/>
  <path
    d="M117.65,26.2c.15,1.25,1.2,2.06,2.7,2.06,.83,0,1.89-.31,2.39-.89l1.12,1.08c-.85,.95-2.28,1.41-3.55,1.41-2.7,0-4.46-1.72-4.46-4.36s1.76-4.3,4.32-4.3,4.46,1.62,4.15,4.98h-6.68v.02Zm5.04-1.45c-.1-1.31-1.06-1.99-2.45-1.99-1.25,0-2.3,.69-2.57,1.99h5.02Z"
    fill="#9b9b9b"/>
  <path
    d="M137.66,17.98h2.06v.08l-3.95,5.69,4.13,5.88v.06h-2.12l-3.18-4.63-3.2,4.63h-2.12v-.06l4.11-5.88-3.94-5.69v-.08h2.06l3.09,4.53,3.07-4.53Z"
    fill="#9b9b9b"/>
  <path
    d="M52.5,41.59c1.4,0,2.08-.72,2.08-1.67,0-1.94-2.99-1.39-2.99-2.21,0-.31,.27-.52,.73-.52,.53,0,1.09,.18,1.51,.57l.62-.83c-.52-.48-1.2-.73-2.03-.73-1.23,0-1.98,.72-1.98,1.59,0,1.96,3,1.33,3,2.23,0,.3-.29,.58-.91,.58-.72,0-1.29-.33-1.66-.71l-.61,.87c.49,.49,1.21,.83,2.22,.83Z"
    fill="#9b9b9b"/>
  <path d="M60.67,41.5v-4.23h1.51v-.98h-4.15v.98h1.52v4.23h1.12Z"
        fill="#9b9b9b"/>
  <path
    d="M68.37,41.59c1.59,0,2.35-.89,2.35-2.18v-3.12h-1.13v3.09c0,.73-.41,1.23-1.22,1.23s-1.23-.5-1.23-1.23v-3.09h-1.12v3.12c0,1.29,.77,2.18,2.35,2.18Z"
    fill="#9b9b9b"/>
  <path
    d="M76.94,41.5c1.62,0,2.76-1.03,2.76-2.61s-1.13-2.6-2.76-2.6h-2.05v5.21h2.06Zm0-.98h-.94v-3.26h.95c1.06,0,1.62,.71,1.62,1.62s-.6,1.63-1.63,1.63Z"
    fill="#9b9b9b"/>
  <path d="M84.71,41.5v-5.21h-1.11v5.21h1.11Z" fill="#9b9b9b"/>
  <path
    d="M91.35,41.59c1.57,0,2.72-1.12,2.72-2.69s-1.15-2.69-2.72-2.69-2.73,1.12-2.73,2.69,1.15,2.69,2.73,2.69Zm0-.98c-.97,0-1.59-.74-1.59-1.71s.62-1.71,1.59-1.71,1.58,.73,1.58,1.71-.62,1.71-1.58,1.71Z"
    fill="#9b9b9b"/>
  <path
    d="M99.82,41.59c1.4,0,2.09-.72,2.09-1.67,0-1.94-2.99-1.39-2.99-2.21,0-.31,.27-.52,.73-.52,.53,0,1.09,.18,1.52,.57l.62-.83c-.52-.48-1.2-.73-2.03-.73-1.23,0-1.98,.72-1.98,1.59,0,1.96,3,1.33,3,2.23,0,.3-.29,.58-.91,.58-.72,0-1.29-.33-1.66-.71l-.61,.87c.49,.49,1.21,.83,2.22,.83Z"
    fill="#9b9b9b"/>
</svg>
