<?xml version="1.0" encoding="UTF-8"?>
<svg id="a" data-name="Layer 1" xmlns="http://www.w3.org/2000/svg"
     viewBox="0 0 113.88 60">
  <rect width="113.88" height="60" fill="none"/>
  <path
    d="M19.67,16.01H8.94v14.48h14.48v-10.73c0-2.08-1.67-3.75-3.75-3.75h0Zm-14.08,0h-1.85c-2.08,0-3.75,1.67-3.75,3.75v1.85H5.6v-5.6ZM0,24.95H5.6v5.6H0v-5.6Zm17.88,14.48h1.85c2.08,0,3.75-1.67,3.75-3.75v-1.79h-5.6v5.54Zm-8.94-5.54h5.6v5.6h-5.6v-5.6Zm-8.94,0v1.85c0,2.08,1.67,3.75,3.75,3.75h1.85v-5.6H0ZM37.73,17.51h-2.19v20.48h11.6v-1.96h-9.4V17.51Zm16.44,5.42c-4.27,0-7.27,3.17-7.27,7.73v.52c.06,1.96,.92,3.81,2.36,5.19,1.39,1.27,3.17,2.02,5.08,2.02h.29c2.02,0,3.92-.75,5.42-2.02l.06-.06-.98-1.61-.11,.06c-1.21,1.1-2.71,1.73-4.32,1.73-2.65,0-5.36-1.73-5.54-5.6h11.08v-.11s.06-.69,.06-1.04c-.01-4.16-2.43-6.81-6.12-6.81Zm-4.96,6.12c.46-2.6,2.36-4.27,4.84-4.27,1.85,0,3.86,1.1,4.04,4.27h-8.88Zm23.77-4.38v.75c-.92-1.56-2.65-2.54-4.44-2.54h-.17c-3.92,0-6.63,3.12-6.63,7.67s2.6,7.73,6.46,7.73c3.06,0,4.44-1.85,4.9-2.65v2.25h2.08V17.51h-2.13v7.15h-.06Zm-4.5,11.71c-2.71,0-4.5-2.31-4.5-5.77s1.9-5.71,4.56-5.71c2.25,0,4.5,1.79,4.5,5.71,0,4.27-2.36,5.77-4.56,5.77Zm19.32-11.42v.11c-.41-.69-1.67-2.19-4.73-2.19-3.86,0-6.4,2.94-6.4,7.44s2.65,7.56,6.58,7.56c2.13,0,3.58-.75,4.56-2.31v2.02c0,2.83-1.79,4.44-4.96,4.44-1.33,0-2.71-.35-3.92-.98l-.11-.06-.81,1.79,.11,.06c1.5,.75,3.17,1.15,4.79,1.15,3.4,0,7.04-1.73,7.04-6.52v-14.19h-2.13v1.67Zm-4.27,11.02c-2.83,0-4.67-2.19-4.67-5.6s1.61-5.42,4.38-5.42c3.06,0,4.5,1.79,4.5,5.42,.06,3.58-1.44,5.6-4.21,5.6Zm15.11-13.04c-4.27,0-7.21,3.17-7.21,7.67v.52c.06,1.96,.93,3.81,2.36,5.19,1.39,1.27,3.17,2.02,5.08,2.02h.29c2.02,0,3.92-.75,5.42-2.02l.06-.06-1.04-1.61-.11,.06c-1.21,1.1-2.71,1.73-4.32,1.73-2.65,0-5.36-1.73-5.54-5.6h11.13v-.11s.06-.69,.06-1.04c0-4.1-2.42-6.75-6.17-6.75Zm-4.9,6.12c.46-2.6,2.36-4.27,4.84-4.27,1.85,0,3.86,1.1,4.04,4.27h-8.88Zm20.08-5.83c-.29-.06-.52-.06-.81-.11-2.02,0-3.69,1.27-4.56,3.4v-3.29h-2.13l.06,14.6v.11h2.19v-6.17c0-.92,.11-1.9,.41-2.77,.69-2.25,2.25-3.69,4.1-3.69,.23,0,.46,0,.69,.06h.11v-2.13h-.06Z"
    fill="#9b9c9c"/>
</svg>
