<?xml version="1.0" encoding="UTF-8"?>
<svg id="a" data-name="Layer 1" xmlns="http://www.w3.org/2000/svg"
     viewBox="0 0 77.43 60">
  <rect width="77.43" height="60" fill="none"/>
  <path
    d="M50.2,14.73c-.17-.25-2.86-2.2-3.13-2.4-.89-.63-2.42-1.9-3.18-2.36-.23,.32-.49,.61-.75,.94l-2.27,2.93c.15,.18,1.77,1.34,1.99,1.44-.13,.34-3.63,4.68-3.97,5.12-1.38,1.79-2.46,3.31-4.52,4.52-2.01,1.17-5,1.58-7.51,.86-5.99-1.73-8.92-8.6-5.84-14.2,1.37-2.5,3.75-4.21,6.5-4.81,.43-.09,1.88-.18,2.05-.25,.03-.01,4.15-4.37,4.32-4.74-2.05-.46-3.48-.76-5.78-.54-11.03,1.09-17.18,13.18-11.6,22.84,2.4,4.15,6.99,7.05,11.92,7.41,5.32,.39,10.3-2.02,13.21-5.9,.47-.63,.94-1.18,1.42-1.81,1.12-1.48,6.76-8.43,7.13-9.05Z"
    fill="#9b9c9c" fill-rule="evenodd"/>
  <path
    d="M24.38,17.96c.14,.22,4.72,3.57,5.28,4,.27,.2,.53,.44,.83,.58l2.86-3.26c.14-.14,.28-.32,.37-.51-.33-.19-1.82-1.24-1.99-1.47,.21-.35,.68-.89,.96-1.25,1.63-2.04,3.33-4.29,4.99-6.26,3.7-4.4,11.43-4.51,15.3,.88,2.15,3,2.4,7.02,.54,10.47-1.29,2.41-3.81,4.23-6.52,4.79-.32,.07-1.99,.23-2.04,.25l-4.3,4.67c.97,.6,4.32,.72,5.62,.61,5.11-.43,9.31-3.29,11.83-7.5,2.64-4.42,2.75-10.54,.02-15.21-.43-.73-.84-1.3-1.32-1.92-.2-.26-.54-.69-.74-.87l-.81-.81C49.81,.32,42.23-.17,36.19,3.97c-.71,.49-2.02,1.61-2.53,2.25-.14,.18-.2,.23-.37,.43-.93,1.08-2.29,2.9-3.21,4.07l-5.7,7.25Z"
    fill="#9b9c9c" fill-rule="evenodd"/>
  <path
    d="M12.03,46.09h1.7s.02-7.02,.02-7.02c.34,.44,1.27,2.8,1.58,3.53,.18,.41,1.39,3.44,1.63,3.49h1.6s3.07-7.01,3.07-7.01l.04,7h1.69s.03-9.5,.03-9.5h-2.53s-3.12,7.21-3.12,7.21l-3.21-7.21h-2.47s-.03,9.51-.03,9.51Z"
    fill="#9b9c9c" fill-rule="evenodd"/>
  <path
    d="M30.06,55.83c-.17,1.29,.98,2.06,1.85,2.47,1.06,.5,2.45,.64,3.75,.47,3.93-.51,4.14-3.3,2.92-4.42-1.61-1.47-5.78-.8-6.45-2.22-.76-1.61,2.43-2.29,4.22-1.5,.58,.26,.78,.48,.9,1.21h1.71c-.02-1.37-.87-2.04-1.86-2.48-2.81-1.25-7.52-.03-6.72,3.04,.46,1.77,2.81,1.88,4.32,2.14,1.06,.18,2.93,.31,2.8,1.56-.15,1.43-3.44,1.57-4.85,.95-.66-.29-.67-.45-.89-1.21h-1.69Z"
    fill="#9b9c9c" fill-rule="evenodd"/>
  <path
    d="M59,43.32h-1.71c-.1,3.26,6.3,3.89,8.53,1.67,.82-.82,.85-2.34,.02-3.15-1.41-1.38-5.65-.88-6.44-2.16-.97-1.56,2.29-2.37,4.11-1.61,.66,.28,.82,.45,.98,1.23l1.68,.02c.47-3.12-6.47-4.1-8.29-1.31-.64,.99-.41,2.26,.58,3.06,1.57,1.27,6.29,.54,6.28,2.4,0,1.55-3.29,1.68-4.79,1.11-.56-.21-.87-.56-.95-1.25Z"
    fill="#9b9c9c" fill-rule="evenodd"/>
  <path
    d="M69.96,43.32h-1.71c-.09,2.34,3.21,3.23,5.53,2.93,3.97-.51,4.22-3.3,3.02-4.42-1.57-1.45-5.66-.84-6.44-2.16-.94-1.58,2.29-2.37,4.11-1.61,.64,.27,.82,.47,.97,1.23h1.68c.48-2.97-6.28-4.21-8.28-1.29-.32,.47-.42,1.1-.3,1.72,.4,1.93,2.72,2,4.27,2.27,1.06,.19,2.89,.3,2.88,1.46,0,1.53-3.3,1.68-4.79,1.11-.55-.22-.89-.57-.95-1.25Z"
    fill="#9b9c9c" fill-rule="evenodd"/>
  <path
    d="M49.02,44.62v-2.57s4.96,0,4.96,0v-1.41s-4.96-.01-4.96-.01v-2.6s6.25-.01,6.25-.01c.14-.41,.06-.94,.06-1.38h-7.97s0,9.43,0,9.43h7.96s0-1.36,0-1.36c-1.91-.06-4.05,.04-5.95,0-.04,0-.18,0-.21-.01-.17-.04-.04,.02-.15-.08Z"
    fill="#9b9c9c" fill-rule="evenodd"/>
  <path
    d="M45.34,51.41c.18,.21,1.52,3.29,1.62,3.69h-3.25s1.63-3.69,1.63-3.69Zm-2.28,5.11h4.56s.88,2.08,.88,2.08h1.86s-4.12-9.5-4.12-9.5c-2.23,0-1.52-.48-2.75,2.34-.42,.97-3,6.69-3.1,7.16h1.79s.89-2.09,.89-2.09Z"
    fill="#9b9c9c" fill-rule="evenodd"/>
  <path
    d="M19.05,49.14c.04,1.5-.19,5.9,.19,6.97,1.32,3.65,7.58,3.59,8.84-.05,.34-.97,.17-5.55,.18-6.95l-1.72,.03c0,1.86,0,3.72,0,5.57,0,1.08-.27,1.48-.83,1.98-1.4,1.25-4.94,.99-4.94-1.98,0-1.86-.02-3.73,0-5.6l-1.73,.04Z"
    fill="#9b9c9c" fill-rule="evenodd"/>
  <path
    d="M28.64,38.01h3.6s0,8.08,0,8.08h1.7l.02-8.06,3.58-.02v-1.43s-8.86,0-8.86,0l-.04,1.43Z"
    fill="#9b9c9c" fill-rule="evenodd"/>
  <path
    d="M1.76,44.62v-7.94c-.48-.13-1.18-.05-1.68-.05v9.43s6.6,0,6.6,0v-1.35c-1.36-.09-3.46,.06-4.63,0-.42-.02-.15,.03-.29-.08Z"
    fill="#9b9c9c" fill-rule="evenodd"/>
  <path
    d="M40.77,44.65l-.05-.1c-.03-.15,0,.03-.02-.13,0-.02,0-.19,0-.22v-7.55s-1.62,.02-1.62,.02v9.38s6.56,0,6.56,0v-1.33s-4.35,0-4.35,0c-.26,0-.35,.03-.53-.06Z"
    fill="#9b9c9c" fill-rule="evenodd"/>
  <path
    d="M8.28,46.09h1.7c.15-1.25,.02-3.42,.02-4.76,0-.99,.13-4-.04-4.75h-1.65s-.03,9.51-.03,9.51Z"
    fill="#9b9c9c" fill-rule="evenodd"/>
  <path d="M25.44,46.08h1.71s0-9.48,0-9.48l-1.7-.02-.02,9.5Z" fill="#9b9c9c"
        fill-rule="evenodd"/>
  <path
    d="M58.97,52.5l-.33-.29c-.51,.17-.82,.5-1.58,.25-1.12-.37-1.18-1.78,.04-2.16,.81-.25,1.05,.12,1.55,.27,.18-.17,.17-.16,.35-.26-.67-1-3.31-.64-3.36,1.03-.04,1.36,1.62,2.05,2.89,1.5,.19-.08,.33-.16,.44-.33Z"
    fill="#9b9c9c" fill-rule="evenodd"/>
  <path
    d="M53.05,52.95h2.19s0-.47,0-.47h-1.61s0-2.64,0-2.64h-.52c-.12,.39-.06,2.55-.04,3.11Z"
    fill="#9b9c9c" fill-rule="evenodd"/>
  <path
    d="M50.35,52.94h2.19s0-.46,0-.46h-1.6s-.03-2.64-.03-2.64h-.57s0,3.1,0,3.1Z"
    fill="#9b9c9c" fill-rule="evenodd"/>
  <path
    d="M49.02,44.61c.11,.09-.03,.04,.15,.08,.03,0,.17,.01,.21,.01,1.9,.04,4.04-.06,5.95,0v1.36s-7.97,0-7.97,0v-9.44s7.97,0,7.97,0c0,.44,.07,.97-.06,1.38,.16-.1,.12,.15,.14-.2v-1.22s-8.12-.03-8.12-.03l-.02,9.52c.37,.1,7.64,.11,8.12,.01v-1.43s-6.37-.05-6.37-.05Z"
    fill="#9b9c9c" fill-rule="evenodd"/>
  <path
    d="M40.77,44.65c.18,.09,.26,.06,.53,.06h4.35s0,1.34,0,1.34h-6.56s0-9.39,0-9.39l1.62-.02v7.55s0,.2,0,.22c.01,.15-.01-.02,.02,.13l.05,.1Zm0,0v-8.08s-1.73-.01-1.73-.01l-.03,9.53c.69,.06,6.34,.08,6.72-.03l.02-1.39-4.99-.02Z"
    fill="#9b9c9c" fill-rule="evenodd"/>
  <path
    d="M1.76,44.62c.14,.11-.13,.06,.29,.08,1.18,.06,3.28-.08,4.64,0v1.35s-6.61,0-6.61,0v-9.43c.5,0,1.2-.08,1.67,.05-.1-.22-.12-.13-.8-.13-.31,0-.63-.02-.93,.03l-.02,9.51,6.74,.03v-1.47s-4.98-.03-4.98-.03Z"
    fill="#9b9c9c" fill-rule="evenodd"/>
</svg>
