<?xml version="1.0" encoding="UTF-8"?>
<svg id="a" data-name="Layer 1" xmlns="http://www.w3.org/2000/svg"
     viewBox="0 0 106.71 60">
  <rect x="8.27" width="80.15" height="60" fill="none"/>
  <path
    d="M11.54,11.15c-1.65,0-3.14,.2-4.47,.6-1.33,.4-2.47,.96-3.42,1.69-.95,.73-1.68,1.6-2.19,2.6-.51,1-.77,2.12-.77,3.33,0,1.21,.2,2.25,.59,3.13,.39,.88,.92,1.62,1.6,2.24,.68,.61,1.46,1.12,2.35,1.53,.89,.41,1.84,.75,2.85,1.02,1.01,.27,2.04,.51,3.09,.71,1.29,.25,2.37,.52,3.24,.79,.86,.27,1.54,.56,2.04,.87,.5,.31,.86,.65,1.07,1.02,.22,.37,.32,.77,.31,1.22,0,.67-.19,1.25-.55,1.72-.36,.48-.84,.87-1.44,1.17-.6,.31-1.27,.53-2.02,.67-.74,.15-1.51,.22-2.29,.22-.72,0-1.44-.1-2.17-.3-.72-.2-1.38-.51-1.98-.92-.61-.4-1.09-.92-1.46-1.53-.37-.62-.56-1.34-.56-2.18H0c0,1.36,.23,2.57,.67,3.64,.44,1.07,1.04,1.99,1.8,2.77,.76,.78,1.63,1.42,2.62,1.93,.98,.52,2.02,.9,3.12,1.14,1.1,.25,2.21,.37,3.32,.37,1.78,0,3.39-.21,4.82-.62,1.43-.41,2.65-1,3.68-1.78,1.02-.77,1.79-1.7,2.34-2.79,.54-1.09,.81-2.32,.82-3.69,0-1.44-.26-2.65-.77-3.62-.51-.98-1.23-1.79-2.19-2.43-.95-.64-2.1-1.18-3.44-1.61-1.35-.43-2.86-.8-4.54-1.13-1.44-.29-2.61-.58-3.53-.88-.91-.3-1.59-.66-2.03-1.07-.44-.41-.66-.94-.66-1.59,0-.54,.16-1.01,.46-1.42,.3-.41,.7-.75,1.22-1.02,.51-.27,1.1-.48,1.75-.62,.66-.14,1.34-.2,2.06-.2,1.14,0,2.12,.2,2.92,.56,.81,.37,1.44,.88,1.87,1.52,.43,.64,.64,1.37,.65,2.19h5.36c0-.9-.14-1.8-.41-2.69-.27-.89-.69-1.72-1.25-2.52-.56-.79-1.27-1.49-2.13-2.1-.86-.61-1.87-1.08-3.03-1.44-1.17-.35-2.5-.53-3.98-.54Zm15.36,20.19c0,1.44,.2,2.73,.6,3.88,.4,1.15,1,2.11,1.79,2.89,.79,.78,1.77,1.35,2.94,1.7,1.17,.35,2.52,.44,4.06,.28v-4.88c-.88,.06-1.62-.03-2.21-.27-.59-.24-1.03-.65-1.33-1.23-.3-.59-.45-1.38-.45-2.36V9.84h-5.4V31.33Zm67.8-.04l5.2,8.83h6.82l-8.25-12.78,7.8-8.18h-7.39l-6.87,7.61V9.84h-5.36v30.28h5.36v-6.02l2.68-2.81Z"
    fill="#9b9c9c" fill-rule="evenodd"/>
  <path
    d="M59.19,31.74c.15-1.66,.08-3.18-.2-4.55-.28-1.37-.75-2.58-1.39-3.65-.64-1.06-1.42-1.95-2.34-2.68-.92-.73-1.94-1.28-3.05-1.66-1.12-.37-2.3-.56-3.54-.56-1.48,0-2.87,.3-4.16,.87-1.29,.57-2.42,1.36-3.41,2.37-.98,1.01-1.75,2.18-2.31,3.51-.56,1.33-.84,2.75-.85,4.28,0,1.53,.29,2.95,.85,4.27,.55,1.32,1.33,2.48,2.31,3.48,.98,1,2.12,1.78,3.41,2.35,1.29,.56,2.68,.85,4.16,.85,1.74,0,3.29-.31,4.66-.91,1.37-.6,2.51-1.42,3.44-2.5,.79-.91,1.39-1.95,1.81-3.13h-5.94c-.22,.28-.46,.53-.74,.75-.46,.36-.97,.62-1.53,.8-.56,.18-1.14,.26-1.75,.26-.85,0-1.62-.17-2.32-.51-.7-.33-1.31-.81-1.81-1.42-.5-.62-.87-1.36-1.1-2.22h15.8Zm2.6,0c-.15-1.66-.08-3.18,.2-4.55,.28-1.37,.75-2.58,1.39-3.65,.64-1.06,1.42-1.95,2.34-2.68,.92-.73,1.94-1.28,3.05-1.66,1.12-.37,2.3-.56,3.54-.56,1.48,0,2.87,.3,4.16,.87,1.29,.57,2.42,1.36,3.41,2.37,.98,1.01,1.75,2.18,2.31,3.51,.56,1.33,.84,2.75,.85,4.28,0,1.53-.29,2.95-.85,4.27-.56,1.32-1.33,2.48-2.31,3.48-.98,1-2.12,1.78-3.41,2.35-1.29,.56-2.68,.85-4.16,.85-1.74,0-3.29-.31-4.67-.91-1.37-.6-2.51-1.42-3.44-2.5-.79-.91-1.39-1.95-1.81-3.13h5.94c.22,.28,.46,.53,.74,.75,.46,.36,.97,.62,1.53,.8,.56,.18,1.14,.26,1.75,.26,.85,0,1.62-.17,2.32-.51,.7-.33,1.31-.81,1.81-1.42,.5-.62,.87-1.36,1.1-2.22h-15.8Zm15.72-4.4c-.26-.82-.64-1.53-1.14-2.12-.5-.6-1.09-1.06-1.77-1.38-.68-.32-1.43-.48-2.25-.49-.86,0-1.65,.17-2.35,.49-.71,.33-1.31,.79-1.81,1.38-.49,.59-.85,1.3-1.08,2.12h10.4Zm-34.04,0c.26-.82,.64-1.53,1.14-2.12,.5-.6,1.09-1.06,1.77-1.38,.68-.32,1.43-.48,2.25-.49,.86,0,1.65,.17,2.35,.49,.71,.33,1.31,.79,1.81,1.38,.49,.59,.85,1.3,1.08,2.12h-10.4Z"
    fill="#d8d9d8" fill-rule="evenodd"/>
  <path
    d="M60.53,48.41c-4.27,0-8.19-1.49-11.28-3.98-1.17-.93-3.39,1.33-1.9,2.42,3.61,2.9,8.19,4.64,13.17,4.64s9.57-1.74,13.17-4.64c1.33-1.35-.77-3.31-2.04-2.31-3.06,2.42-6.93,3.87-11.13,3.87Z"
    fill="#d8d9d8" fill-rule="evenodd"/>
</svg>
