<?xml version="1.0" standalone="no"?>
<!DOCTYPE svg PUBLIC "-//W3C//DTD SVG 20010904//EN"
 "http://www.w3.org/TR/2001/REC-SVG-20010904/DTD/svg10.dtd">
<svg version="1.0" xmlns="http://www.w3.org/2000/svg"
 width="700.000000pt" height="700.000000pt" viewBox="0 0 700.000000 700.000000"
 preserveAspectRatio="xMidYMid meet">
<metadata>
Created by potrace 1.14, written by Peter Selinger 2001-2017
</metadata>
<g transform="translate(0.000000,700.000000) scale(0.100000,-0.100000)"
fill="#000000" stroke="none">
<path d="M1022 5975 l-1022 -1023 0 -1450 0 -1450 1026 -1026 1025 -1026 1450
0 1449 0 1025 1024 1025 1024 0 1450 0 1450 -1026 1026 -1026 1026 -1451 -1
-1452 -1 -1023 -1023z m4726 -228 l932 -931 0 -1316 0 -1317 -932 -931 -932
-932 -1315 0 -1316 0 -932 932 -933 933 0 1315 0 1315 932 932 931 931 1317 0
1317 0 931 -931z"/>
<path d="M3796 5336 c-97 -97 -176 -181 -176 -187 0 -13 348 -364 355 -358 34
30 355 354 355 358 0 4 -80 87 -179 185 l-178 178 -177 -176z"/>
<path d="M4812 5330 l-183 -182 181 -180 c180 -179 181 -180 201 -162 46 42
339 339 339 344 0 3 -80 85 -178 183 l-178 178 -182 -181z"/>
<path d="M1663 4626 l0 -874 160 2 161 1 1 370 0 370 505 2 c278 0 508 2 513
2 4 1 7 63 7 139 l0 139 -510 -1 c-333 -1 -511 2 -512 9 0 6 -2 106 -2 223
l-1 212 511 0 511 0 -1 140 0 140 -672 0 -671 0 0 -874z"/>
<path d="M4296 4819 l-180 -180 180 -180 c98 -98 182 -179 186 -179 8 0 358
350 358 359 0 7 -353 361 -360 361 -3 -1 -86 -82 -184 -181z"/>
<path d="M3787 4308 l-177 -180 180 -181 c99 -99 182 -178 185 -176 14 13 305
302 330 328 l29 32 -179 179 c-99 99 -182 180 -185 179 -3 -1 -85 -82 -183
-181z"/>
<path d="M4807 4309 l-177 -180 180 -181 c100 -99 183 -179 185 -177 11 10
306 304 331 330 l28 30 -179 179 c-99 99 -182 180 -185 179 -3 0 -85 -81 -183
-180z"/>
<path d="M1684 3312 l-22 -3 1 -870 c0 -478 3 -869 6 -870 43 -7 311 -2 314 6
1 5 2 148 2 316 l-1 306 285 1 c316 1 344 3 432 32 162 55 275 189 295 352 10
72 9 279 0 358 -16 135 -106 261 -228 318 -113 53 -137 55 -618 56 -245 1
-455 0 -466 -2z m919 -301 c68 -42 80 -83 80 -261 0 -128 -11 -175 -51 -216
-52 -52 -74 -56 -346 -55 -138 0 -262 0 -276 0 l-25 1 0 275 c0 231 2 275 14
277 8 2 139 3 291 2 267 -1 279 -2 313 -23z"/>
<path d="M4111 3312 c-14 -5 -501 -492 -510 -511 -5 -9 -9 -174 -9 -368 l-1
-352 257 -258 257 -257 360 -1 360 -1 258 255 257 256 0 364 0 364 -254 253
c-139 140 -257 254 -262 255 -25 3 -705 4 -713 1z m747 -481 l162 -163 0 -228
0 -228 -160 -161 c-126 -126 -167 -161 -188 -162 -15 0 -119 -1 -231 -1 l-203
0 -162 161 -162 162 0 229 1 230 155 156 c85 85 163 159 172 162 9 4 115 7
235 6 l219 -1 162 -162z"/>
</g>
</svg>
