<?xml version="1.0" encoding="UTF-8"?>
<svg id="a" data-name="Layer 1" xmlns="http://www.w3.org/2000/svg"
     viewBox="0 0 38.39 60">
  <defs>
    <clipPath id="b">
      <rect y="7.55" width="38.39" height="44.9" fill="none"/>
    </clipPath>
  </defs>
  <rect x="5.66" width="31.7" height="60" fill="none"/>
  <g clip-path="url(#b)">
    <g>
      <path
        d="M34.9,7.55H3.49c-2.55,0-3.49,.95-3.49,3.51v30.98c0,.29,.01,.56,.04,.81,.06,.56,.07,1.1,.59,1.72,.05,.06,.58,.46,.58,.46,.28,.14,.48,.24,.8,.37l15.47,6.53c.8,.37,1.14,.52,1.72,.5h0s0,0,0,0h0c.58,.01,.92-.13,1.72-.5l15.47-6.53c.32-.13,.51-.23,.8-.37,0,0,.53-.4,.58-.46,.52-.62,.53-1.16,.59-1.72,.03-.25,.04-.52,.04-.81V11.07c0-2.57-.94-3.51-3.49-3.51Z"
        fill="#9b9b9b" fill-rule="evenodd"/>
      <path
        d="M32.8,38.7v.07s-.01,.08-.01,.08v.07s-.04,.07-.04,.07v.06s-.04,.07-.04,.07l-.03,.06-.03,.06-.03,.06-.04,.06-.04,.06-.04,.06-.04,.06-.04,.05-.05,.05-.04,.04-.06,.05-.05,.04-.06,.04-.06,.04-.06,.04-.06,.04-.06,.03-.06,.04-.07,.03-.07,.03-.07,.02-.07,.02-.06,.02h-.07s-.06,.03-.06,.03h-.06s-.07,.03-.07,.03h-.07s-.06,.01-.06,.01h-.07s-.08,.01-.08,.01h-.07s-.07,0-.07,0h-.3s-.08,0-.08,0h-.07s-.07-.01-.07-.01h-.08s-.07-.02-.07-.02h-.07s-.07-.02-.07-.02h-.07s-.07-.03-.07-.03h-.07s-.07-.04-.07-.04h-.06s-.07-.04-.07-.04l-.07-.02-.06-.03-.07-.02-.06-.02-.07-.03-.06-.03-.06-.03-.06-.04-.06-.03-.06-.04-.06-.04-.06-.04-.06-.04-.06-.04-.06-.04-.06-.04-.06-.04-.06-.04-.05-.04-.06-.05,.04-.06,.05-.05,.04-.06,.05-.06,.04-.05,.04-.06,.05-.06,.04-.05,.05-.06,.04-.05,.05-.06,.04-.06,.04-.05,.05-.06,.04-.06,.05-.05,.04-.06,.06,.04,.06,.04,.06,.04,.06,.04,.06,.04,.06,.04,.06,.04,.06,.03,.06,.04,.06,.03,.06,.03,.06,.03,.06,.02,.06,.03,.07,.02,.07,.02,.06,.02h.07s.07,.03,.07,.03h.07s.08,.02,.08,.02h.07s.07,.01,.07,.01h.08s.07,0,.07,0h.16s.07-.02,.07-.02h.06s.06-.03,.06-.03l.06-.02,.05-.03,.06-.04,.04-.05,.03-.06,.02-.06v-.07s0-.01,0-.01v-.09s-.04-.07-.04-.07l-.04-.05-.05-.04-.06-.04-.06-.03-.06-.03-.07-.03-.08-.04h-.05s-.06-.03-.06-.03l-.06-.02h-.06s-.07-.04-.07-.04h-.07s-.08-.04-.08-.04h-.07s-.08-.04-.08-.04h-.07s-.07-.04-.07-.04h-.07s-.07-.04-.07-.04l-.06-.02h-.07s-.06-.04-.06-.04l-.06-.02-.06-.02-.08-.03-.07-.03-.07-.03-.07-.03-.06-.04-.07-.04-.06-.04-.06-.04-.06-.04-.06-.04-.05-.04-.05-.05-.05-.05-.04-.05-.04-.05-.04-.05-.03-.06-.04-.06-.03-.05-.02-.06-.02-.06-.02-.06v-.07s-.03-.06-.03-.06v-.07s-.01-.07-.01-.07v-.08s0-.08,0-.08h0v-.16s.01-.06,.01-.06v-.07s.02-.06,.02-.06v-.06s.04-.06,.04-.06v-.06s.04-.06,.04-.06l.03-.06,.03-.06,.04-.06,.04-.06,.04-.06,.04-.06,.05-.06,.05-.05,.05-.06,.06-.05,.05-.04,.06-.04,.06-.04,.06-.04,.06-.04,.06-.03,.06-.04,.06-.03,.07-.02,.07-.03,.06-.02h.06s.06-.03,.06-.03h.06s.07-.03,.07-.03h.06s.07-.02,.07-.02h.07s.07-.01,.07-.01h.07s.07,0,.07,0h.31s.08,.01,.08,.01h.15s.07,.02,.07,.02h.08s.07,.02,.07,.02h.06s.07,.03,.07,.03h.07s.06,.03,.06,.03l.07,.02,.06,.02h.06s.07,.04,.07,.04l.06,.02,.06,.03,.06,.03,.07,.03,.06,.04,.06,.03,.06,.04,.06,.04,.06,.04,.06,.04,.06,.04,.06,.04,.06,.04,.06,.04-.04,.06-.04,.06-.04,.06-.04,.06-.04,.06-.04,.06-.04,.06-.04,.06-.04,.06-.04,.06-.04,.06-.04,.06-.04,.06-.04,.06-.04,.06-.04,.06-.04,.06-.06-.04-.06-.04-.06-.04-.06-.04-.06-.03-.06-.04-.06-.03-.06-.03-.06-.03-.06-.03-.06-.02-.06-.03-.08-.02-.07-.02-.07-.02h-.07s-.07-.03-.07-.03h-.07s-.07-.02-.07-.02h-.07s-.06-.01-.06-.01h-.23s-.07,.03-.07,.03h-.06s-.06,.04-.06,.04l-.05,.03-.06,.06-.04,.06-.03,.06v.07s0,.01,0,.01v.09s.04,.08,.04,.08l.03,.04,.05,.05,.06,.04,.06,.04,.07,.03,.08,.03,.08,.03h.06s.06,.04,.06,.04h.06s.06,.04,.06,.04h.07s.08,.04,.08,.04l.08,.02,.08,.02h.08s.07,.04,.07,.04l.08,.02h.07s.07,.04,.07,.04l.07,.02,.06,.02,.07,.02,.06,.02,.06,.02,.08,.03,.07,.04,.07,.03,.07,.04,.06,.04,.06,.04,.06,.04,.06,.04,.06,.04,.06,.05,.06,.05,.05,.06,.05,.05,.04,.06,.04,.06,.03,.06,.04,.06,.03,.06,.02,.06,.02,.06v.06s.03,.07,.03,.07v.07s.02,.07,.02,.07v.08s0,.08,0,.08h0v.17Zm-4.96,1.43h-4.05v-5.2h4.08v1.18h-2.73v.85h2.46v1.11h-2.46v.89h2.77v1.18h-.07Zm-5.16,0h-1.29v-3.08l-.04,.06-.04,.06-.04,.06-.04,.06-.04,.06-.04,.06-.03,.06-.04,.06-.04,.06-.04,.06-.04,.06-.03,.06-.04,.06-.03,.06-.04,.06-.04,.06-.03,.06-.04,.06-.03,.06-.04,.06-.03,.06-.04,.06-.04,.06-.03,.06-.04,.06-.03,.06-.04,.06-.04,.06-.03,.06-.04,.06-.04,.06-.04,.06-.04,.06-.04,.06-.04,.06h-.03l-.04-.06-.04-.06-.04-.06-.04-.06-.04-.06-.04-.06-.04-.06-.04-.06-.04-.06-.04-.06-.04-.06-.03-.06-.04-.06-.04-.06-.04-.06-.04-.06-.04-.06-.04-.06-.04-.06-.04-.06-.04-.06-.04-.06-.04-.06-.04-.06-.04-.06-.04-.06-.03-.06-.04-.06-.03-.06-.04-.06-.04-.06-.04-.06-.04-.06-.04-.06v3.06h-1.34v-5.2h1.45l.03,.06,.04,.06,.04,.06,.04,.06,.04,.06,.03,.06,.04,.06,.04,.06,.04,.06,.04,.06,.04,.06,.04,.06,.04,.06,.04,.06,.04,.06,.04,.06,.04,.06,.04,.06,.03,.06,.04,.06,.04,.06,.04,.06,.04,.06,.03,.06,.04,.06,.04,.06,.04,.06,.04,.06,.04,.06,.04,.06,.04,.06,.04,.06,.04,.06,.04,.06,.04-.06,.04-.06,.04-.06,.04-.06,.04-.06,.04-.06,.04-.06,.04-.06,.04-.06,.03-.06,.04-.06,.04-.06,.04-.06,.04-.06,.04-.06,.04-.06,.04-.06,.04-.06,.04-.06,.04-.06,.04-.06,.04-.06,.04-.06,.04-.06,.04-.06,.04-.06,.04-.06,.04-.06,.04-.06,.03-.06,.04-.06,.04-.06,.04-.06,.04-.06h1.45v5.2h-.07Zm-8.19-2.14l-.02-.06-.03-.07-.03-.06-.02-.06-.03-.06-.03-.07-.02-.06-.03-.06-.03-.06-.02-.06-.03-.07-.02-.06-.03-.06-.03-.06-.02-.06-.03-.07-.03-.06-.02-.06-.03-.06-.03-.07-.02-.06-.03-.06-.03,.06-.02,.06-.03,.07-.03,.06-.02,.06-.03,.06-.03,.07-.03,.06-.02,.06-.03,.06-.03,.06-.02,.07-.03,.06-.03,.06-.02,.06-.03,.06-.03,.07-.03,.06-.02,.06-.03,.06-.03,.07-.02,.06-.03,.06h1.19l-.03-.06Zm2.22,2.14h-1.38l-.03-.06-.02-.06-.03-.06-.03-.07-.02-.06-.03-.06-.03-.06-.02-.06-.03-.06-.03-.06-.02-.06-.03-.07-.03-.06-.02-.06-.03-.06h-2.03l-.03,.06-.02,.06-.03,.06-.03,.07-.02,.06-.03,.06-.03,.06-.02,.06-.03,.06-.03,.06-.02,.06-.03,.07-.03,.06-.02,.06-.03,.06h-1.43l.03-.06,.03-.06,.03-.06,.03-.07,.02-.06,.03-.06,.03-.06,.03-.06,.03-.06,.03-.07,.03-.06,.03-.06,.02-.06,.03-.06,.03-.06,.03-.07,.03-.06,.03-.06,.03-.06,.03-.06,.02-.06,.03-.07,.03-.06,.03-.06,.03-.06,.03-.06,.03-.06,.03-.07,.02-.06,.03-.06,.03-.06,.03-.06,.03-.06,.03-.07,.03-.06,.03-.06,.02-.06,.03-.06,.03-.06,.03-.07,.03-.06,.03-.06,.03-.06,.03-.06,.02-.06,.03-.06,.03-.07,.03-.06,.03-.06,.03-.06,.03-.06,.03-.06,.02-.07,.03-.06,.03-.06,.03-.06,.03-.06,.03-.06,.03-.07,.03-.06,.02-.06,.03-.06,.03-.06,.03-.06,.03-.07,.03-.06,.03-.06,.03-.06,.02-.06,.03-.06,.03-.07,.03-.06,.03-.06,.03-.06,.03-.06,.03-.06,.02-.07,.03-.06,.03-.06,.03-.06h1.31l.03,.06,.03,.06,.03,.06,.03,.07,.02,.06,.03,.06,.03,.06,.03,.06,.03,.06,.03,.07,.03,.06,.03,.06,.02,.06,.03,.06,.03,.06,.03,.07,.03,.06,.03,.06,.03,.06,.03,.06,.02,.06,.03,.07,.03,.06,.03,.06,.03,.06,.03,.06,.03,.06,.03,.07,.02,.06,.03,.06,.03,.06,.03,.06,.03,.06,.03,.07,.03,.06,.03,.06,.02,.06,.03,.06,.03,.06,.03,.06,.03,.07,.03,.06,.03,.06,.03,.06,.02,.06,.03,.06,.03,.07,.03,.06,.03,.06,.03,.06,.03,.06,.03,.06,.02,.07,.03,.06,.03,.06,.03,.06,.03,.06,.03,.06,.03,.07,.03,.06,.02,.06,.03,.06,.03,.06,.03,.06,.03,.07,.03,.06,.03,.06,.03,.06,.02,.06,.03,.06,.03,.07,.03,.06,.03,.06,.03,.06,.03,.06,.03,.06,.02,.07,.03,.06,.03,.06,.03,.06h-.07Zm-6.18-.66l-.06,.04-.05,.04-.06,.04-.06,.04-.06,.04-.06,.04-.06,.04-.06,.04-.06,.04-.06,.04-.06,.03-.06,.04-.07,.03-.06,.03-.07,.03-.06,.03-.06,.02-.06,.02-.06,.02-.07,.02-.06,.02h-.07s-.06,.03-.06,.03h-.07s-.07,.03-.07,.03h-.07s-.08,.01-.08,.01h-.07s-.08,.01-.08,.01h-.07s-.08,.01-.08,.01h-.37s-.08-.01-.08-.01h-.07s-.07-.01-.07-.01h-.07s-.07-.02-.07-.02h-.07s-.06-.03-.06-.03h-.07s-.06-.04-.06-.04h-.07s-.06-.04-.06-.04l-.06-.03-.06-.02-.07-.03-.06-.03-.06-.03-.06-.03-.06-.04-.06-.04-.06-.04-.06-.04-.06-.04-.06-.04-.06-.04-.06-.04-.05-.04-.05-.04-.05-.05-.05-.04-.05-.05-.05-.05-.04-.05-.04-.06-.04-.05-.04-.06-.04-.06-.04-.06-.04-.06-.04-.06-.04-.06-.03-.06-.03-.06-.03-.06-.03-.06-.02-.06-.03-.06v-.06s-.04-.06-.04-.06v-.07s-.04-.06-.04-.06v-.07s-.02-.06-.02-.06v-.07s-.02-.06-.02-.06v-.07s-.01-.07-.01-.07v-.07s0-.08,0-.08v-.07h0v-.16s0-.07,0-.07v-.07s.01-.08,.01-.08v-.07s.02-.07,.02-.07v-.06s.04-.07,.04-.07v-.07s.04-.06,.04-.06l.02-.07,.02-.06,.03-.07,.03-.06,.03-.06,.03-.06,.03-.06,.04-.06,.04-.06,.04-.06,.04-.06,.04-.06,.04-.06,.04-.06,.04-.06,.04-.05,.05-.05,.04-.05,.05-.05,.05-.05,.05-.04,.06-.05,.05-.04,.06-.04,.06-.04,.06-.04,.06-.04,.06-.04,.06-.04,.06-.04,.06-.04,.06-.03,.06-.03,.07-.04,.06-.02,.07-.02,.06-.03h.06s.06-.04,.06-.04h.07s.06-.04,.06-.04h.07s.07-.02,.07-.02h.07s.07-.02,.07-.02h.07s.07-.01,.07-.01h.07s.08,0,.08,0h.3s.08,.01,.08,.01h.14s.08,.02,.08,.02h.06s.07,.02,.07,.02h.07s.06,.03,.06,.03h.06s.06,.03,.06,.03l.06,.02h.06s.06,.04,.06,.04l.06,.02,.06,.03,.06,.03,.06,.03,.06,.04,.06,.03,.06,.04,.06,.04,.06,.04,.06,.04,.06,.04,.06,.04,.06,.04,.06,.04,.06,.05,.06,.04-.04,.06-.05,.05-.04,.06-.05,.06-.04,.06-.04,.05-.05,.06-.04,.06-.04,.05-.05,.06-.04,.06-.05,.06-.04,.05-.04,.06-.05,.06-.04,.06-.05,.05-.04,.06-.06-.04-.06-.05-.06-.04-.06-.04-.06-.04-.06-.04-.06-.04-.06-.04-.06-.03-.06-.03-.06-.02-.06-.02-.06-.02h-.06s-.07-.03-.07-.03h-.07s-.07-.02-.07-.02h-.08s-.08-.01-.08-.01h-.22s-.06,.01-.06,.01h-.07s-.06,.03-.06,.03l-.06,.02-.06,.02-.06,.03-.06,.03-.06,.04-.06,.04-.06,.04-.05,.04-.05,.04-.05,.04-.04,.05-.05,.05-.04,.06-.04,.05-.04,.06-.03,.06-.04,.06-.03,.06-.02,.06-.03,.06-.02,.07v.07s-.03,.06-.03,.06v.08s-.02,.07-.02,.07v.07s0,.08,0,.08h0v.16s.01,.06,.01,.06v.07s.02,.06,.02,.06v.06s.03,.06,.03,.06l.02,.06,.02,.06,.03,.07,.03,.06,.04,.06,.04,.06,.04,.06,.04,.06,.04,.05,.05,.05,.04,.05,.05,.04,.06,.04,.06,.04,.06,.04,.06,.04,.06,.03,.06,.03,.06,.03,.07,.02,.07,.02h.07s.07,.03,.07,.03h.07s.08,.01,.08,.01h.24s.08-.01,.08-.01h.07s.07-.02,.07-.02h.07s.07-.04,.07-.04h.06s.06-.04,.06-.04l.06-.03,.06-.03,.05-.03,.06-.04v-.65h-1.03v-1.04h2.33v2.32l-.05,.04Z"
        fill="#fff"/>
      <path
        d="M8.26,23.16h3.06v-2.39h-3.06v-4.87h3.18v-2.39H5.66V30.73h5.83v-2.39h-3.23v-5.19Z"
        fill="#fff"/>
      <path
        d="M30.18,23.67v3.89c0,.69-.32,1.01-.97,1.01h-.49c-.68,0-1-.32-1-1.01v-10.87c0-.69,.32-1.01,1-1.01h.44c.66,0,.97,.32,.97,1.01v3.37h2.55v-3.52c0-2.14-1.02-3.17-3.13-3.17h-1.26c-2.11,0-3.16,1.06-3.16,3.2v11.12c0,2.14,1.04,3.2,3.16,3.2h1.29c2.11,0,3.16-1.06,3.16-3.2v-4.01h-2.55Z"
        fill="#fff"/>
      <path d="M21.15,30.73h2.6V13.52h-2.6V30.73Z" fill="#fff"/>
      <path
        d="M17.38,21.17c0,.69-.32,1.01-.97,1.01h-1.07v-6.34h1.07c.66,0,.97,.32,.97,1.01v4.33Zm-.56-7.65h-4.08V30.73h2.6v-6.25h1.48c2.11,0,3.16-1.06,3.16-3.2v-4.57c0-2.14-1.04-3.2-3.16-3.2"
        fill="#fff"/>
      <path d="M11.79,46.3h14.87l-7.59,2.52-7.28-2.52Z" fill="#fff"
            fill-rule="evenodd"/>
    </g>
  </g>
</svg>
