<?xml version="1.0" encoding="UTF-8"?>
<svg id="a" data-name="Layer 1" xmlns="http://www.w3.org/2000/svg"
     viewBox="0 0 159.42 60">
  <defs>
    <clipPath id="b">
      <rect y="9.83" width="159.42" height="40.34" fill="none"/>
    </clipPath>
  </defs>
  <rect x="57.01" width="60" height="60" fill="none"/>
  <g clip-path="url(#b)">
    <g>
      <path
        d="M45.2,33.04c0,.14-.06,.27-.16,.37-.1,.1-.23,.15-.37,.15h-9.79c.25,2.44,2.07,4.68,4.64,4.68,1.76,0,3.06-.67,4.03-2.09,.05-.07,.11-.14,.18-.18,.07-.04,.16-.07,.25-.07,.06,0,.13,0,.19,.03,.06,.02,.11,.06,.16,.11,.05,.05,.08,.1,.11,.16,.02,.06,.04,.13,.03,.19,0,.09-.03,.18-.07,.25-.99,1.73-2.95,2.58-4.87,2.58-3.29,0-5.65-2.98-5.65-6.16s2.35-6.16,5.65-6.16,5.67,2.95,5.68,6.13Zm-1.05-.46c-.21-2.44-2.07-4.68-4.63-4.68s-4.38,2.24-4.64,4.68h9.27Z"
        fill="#9b9b9b"/>
      <path
        d="M57.1,27.15c.13,0,.25,.06,.34,.15,.09,.09,.14,.21,.15,.34,0,.07,0,.13-.03,.19-.02,.06-.06,.12-.11,.16-.05,.05-.1,.08-.16,.11-.06,.02-.12,.04-.19,.03h-2.63v10.42c0,.13-.05,.25-.14,.35-.09,.09-.21,.14-.34,.15-.13,0-.25-.06-.34-.15-.09-.09-.14-.21-.15-.34v-10.42h-2.52c-.06,0-.13,0-.19-.03-.06-.02-.11-.06-.16-.11-.05-.05-.08-.1-.11-.16-.02-.06-.04-.13-.03-.19,0-.13,.05-.25,.14-.35,.09-.09,.21-.14,.34-.15h2.52v-3.8c0-.13,.04-.25,.13-.34,.08-.1,.19-.16,.32-.18,.07,0,.14,0,.21,.02,.07,.02,.13,.06,.18,.1,.05,.05,.09,.1,.12,.17,.03,.06,.04,.13,.04,.2v3.83h2.61Z"
        fill="#9b9b9b"/>
      <path
        d="M73.11,32.19v6.31c0,.13-.06,.25-.15,.34-.09,.09-.21,.14-.34,.15-.06,0-.13,0-.19-.03-.06-.02-.11-.06-.16-.11-.05-.05-.08-.1-.11-.16-.02-.06-.04-.13-.03-.19v-6.31c0-2.13-1.2-4.25-3.54-4.25-3.01,0-4.31,2.65-4.13,5.38,0,.07,.03,.39,.03,.43v4.73c0,.13-.04,.25-.13,.34-.08,.1-.19,.16-.32,.18-.07,0-.14,0-.21-.02-.07-.02-.13-.06-.18-.1-.05-.05-.09-.1-.12-.17-.03-.06-.04-.13-.04-.2V17.77c0-.13,.05-.25,.14-.35,.09-.09,.21-.14,.34-.15,.13,0,.25,.06,.34,.15,.09,.09,.14,.21,.15,.34v11.72c.84-1.52,2.35-2.55,4.1-2.55,2.89,0,4.53,2.55,4.53,5.25Z"
        fill="#9b9b9b"/>
      <path
        d="M90.69,33.04c0,.14-.06,.27-.16,.37-.1,.1-.23,.15-.37,.15h-9.79c.25,2.44,2.07,4.68,4.64,4.68,1.76,0,3.06-.67,4.03-2.09,.05-.07,.11-.14,.18-.18,.07-.04,.16-.07,.25-.07,.06,0,.13,0,.19,.03,.06,.02,.11,.06,.16,.11,.05,.05,.08,.1,.11,.16,.02,.06,.04,.13,.03,.19,0,.09-.03,.18-.07,.25-.99,1.73-2.95,2.58-4.87,2.58-3.29,0-5.65-2.98-5.65-6.16s2.35-6.16,5.65-6.16,5.67,2.95,5.68,6.13Zm-1.06-.46c-.21-2.44-2.07-4.68-4.64-4.68s-4.38,2.24-4.64,4.68h9.27Z"
        fill="#9b9b9b"/>
      <path
        d="M102.72,27.61c.01,.13-.03,.26-.12,.36-.09,.1-.21,.16-.34,.17-2.88,.43-4.18,2.8-4.18,5.56v4.73c0,.13-.04,.25-.13,.34-.08,.1-.19,.16-.32,.18-.07,0-.14,0-.21-.02-.07-.02-.13-.06-.18-.1-.05-.05-.09-.1-.12-.17-.03-.06-.04-.13-.04-.2v-10.78c0-.13,.05-.25,.13-.34,.08-.1,.19-.16,.32-.18,.07,0,.14,0,.21,.02s.13,.06,.18,.1c.05,.05,.09,.1,.12,.17,.03,.06,.04,.13,.04,.2v2.19c.81-1.39,2.42-2.7,4.1-2.7,.25,0,.53,.18,.53,.46Z"
        fill="#9b9b9b"/>
      <path
        d="M118.81,33.04c0,.14-.06,.27-.16,.37-.1,.1-.23,.15-.37,.15h-9.79c.25,2.44,2.07,4.68,4.63,4.68,1.76,0,3.06-.67,4.03-2.09,.05-.07,.11-.14,.18-.18,.07-.04,.16-.07,.24-.07,.07,0,.13,0,.19,.03,.06,.02,.11,.06,.16,.11,.05,.05,.08,.1,.11,.16,.02,.06,.03,.13,.03,.19,0,.09-.03,.18-.07,.25-.99,1.73-2.95,2.58-4.87,2.58-3.29,0-5.65-2.98-5.65-6.16s2.35-6.16,5.65-6.16,5.67,2.95,5.68,6.13Zm-1.05-.46c-.21-2.44-2.07-4.68-4.64-4.68s-4.38,2.24-4.63,4.68h9.27Z"
        fill="#9b9b9b"/>
      <path
        d="M134.63,27.73v10.82c0,.13-.06,.25-.15,.34-.09,.09-.21,.14-.34,.15-.06,0-.13,0-.19-.03-.06-.02-.12-.06-.16-.11-.05-.05-.08-.1-.1-.16-.02-.06-.04-.13-.03-.19v-2.06c-.81,1.63-2.24,2.8-4.07,2.8-2.91,0-4.52-2.55-4.52-5.25v-6.34c0-.13,.05-.25,.14-.35,.09-.09,.22-.14,.34-.15,.13,0,.25,.06,.34,.15,.09,.09,.14,.21,.15,.34v6.34c0,2.13,1.19,4.25,3.54,4.25,3.29,0,4.07-3.12,4.07-6.56v-4.04c0-.08,.02-.16,.06-.23,.04-.07,.09-.13,.15-.18,.07-.05,.14-.07,.22-.08,.08,0,.16,0,.23,.03,.09,.04,.17,.11,.23,.2,.05,.09,.08,.19,.08,.29Z"
        fill="#9b9b9b"/>
      <path
        d="M159.42,32.15v6.34c0,.13-.06,.25-.15,.34-.09,.09-.21,.14-.34,.15-.07,0-.13,0-.19-.03s-.11-.06-.16-.11-.08-.1-.1-.16c-.02-.06-.04-.13-.03-.19v-6.34c0-2.13-1.2-4.22-3.54-4.22-2.95,0-4.07,3.19-4.07,5.67v4.89c0,.13-.06,.25-.15,.34-.09,.09-.21,.14-.34,.15-.07,0-.13,0-.19-.03s-.11-.06-.16-.11c-.04-.05-.08-.1-.1-.16-.02-.06-.04-.13-.03-.19v-6.34c0-2.13-1.2-4.22-3.54-4.22-2.98,0-4.21,2.37-4.1,5.53,0,.07,.03,.21,0,.25v4.76c0,.13-.04,.25-.13,.34-.08,.1-.19,.16-.32,.18-.07,0-.14,0-.21-.02-.07-.02-.13-.06-.18-.1-.05-.05-.09-.1-.12-.17s-.04-.13-.04-.2v-10.81c0-.13,.05-.25,.13-.34,.08-.1,.19-.16,.32-.18,.07,0,.14,0,.21,.02,.07,.02,.13,.06,.18,.1s.09,.1,.12,.17c.03,.06,.04,.13,.04,.2v1.8c.84-1.52,2.35-2.52,4.1-2.52,1.99,0,3.54,1.28,4.18,3.15,.81-1.85,2.39-3.15,4.41-3.15,2.88,0,4.52,2.52,4.52,5.2Z"
        fill="#9b9b9b"/>
      <path d="M12.25,24.75L0,30.37l12.25,7.32,12.27-7.32-12.27-5.62Z"
            fill="#9b9b9b" isolation="isolate" opacity=".6"/>
      <path d="M0,30.37l12.25,7.32V9.83L0,30.37Z" fill="#9b9b9b"
            isolation="isolate" opacity=".45"/>
      <path d="M12.25,9.83v27.86l12.27-7.32L12.25,9.83Z" fill="#9b9b9b"
            isolation="isolate" opacity=".8"/>
      <path d="M0,32.73l12.25,17.44v-10.14L0,32.73Z" fill="#9b9b9b"
            isolation="isolate" opacity=".45"/>
      <path d="M12.25,40.03v10.14l12.27-17.44-12.27,7.31Z" fill="#9b9b9b"
            isolation="isolate" opacity=".8"/>
    </g>
  </g>
</svg>
