<?xml version="1.0" encoding="UTF-8"?>
<svg id="a" data-name="Layer 1" xmlns="http://www.w3.org/2000/svg"
     viewBox="0 0 257.86 60">
  <rect x="151.07" width="80.15" height="60" fill="none"/>
  <path
    d="M26.84,32.1c-.28,1.35-1.54,4.83-5.56,6.71l-1.61-1.8-2.72,2.71c-1.55-.02-3.07-.4-4.45-1.1-1.38-.7-2.58-1.71-3.5-2.94,.29,.09,.59,.15,.89,.17,.45,0,.93-.15,.93-.9v-7.32c0-.19-.03-.38-.11-.55-.08-.17-.2-.32-.35-.44-.15-.12-.32-.2-.51-.24-.19-.04-.38-.03-.56,.01-1.26,.29-2.27,3.41-2.27,3.41-.01-1.44,.29-2.87,.89-4.18,.6-1.31,1.48-2.48,2.58-3.42,1.45-1.24,3.22-2.05,5.11-2.34-1.38,.78-2.15,2.05-2.15,3.11,0,1.71,1.04,1.51,1.35,1.25v9.89c.05,.12,.12,.24,.2,.35,.14,.19,.32,.34,.53,.45,.21,.11,.44,.16,.68,.16,1.04,0,2.39-1.18,2.39-1.18v-8c0-.81-.62-1.8-1.24-2.13,0,0,1.15-.2,2.03,.47,.17-.2,.34-.39,.53-.58,2.07-2.01,4.01-2.58,5.63-2.87,0,0-2.95,2.3-2.95,5.38,0,2.29,.06,7.88,.06,7.88,1.09,1.05,2.72-.47,4.19-1.96Z"
    fill="#9b9c9c" fill-rule="evenodd"/>
  <path
    d="M33.84,29.81c0,9.34-7.57,16.92-16.92,16.92S0,39.15,0,29.81,7.57,12.89,16.92,12.89s16.92,7.57,16.92,16.92Zm-16.92,15.75c8.7,0,15.75-7.05,15.75-15.75s-7.05-15.75-15.75-15.75S1.17,21.11,1.17,29.81s7.05,15.75,15.75,15.75Z"
    fill="#9b9c9c" fill-rule="evenodd"/>
  <path
    d="M175.07,36.63h-14.39v-13.2h14.16v2.92h-10.31v2.25h9.76v2.76h-9.76v2.27h10.53v3.01h0Z"
    fill="#9b9c9c" fill-rule="evenodd"/>
  <path
    d="M257.86,36.63h-14.16v-13h13.94v2.87h-10.15v2.21h9.61v2.72h-9.61v2.24h10.37v2.96Z"
    fill="#9b9c9c" fill-rule="evenodd"/>
  <path
    d="M194.58,36.63h-5.82l-7.66-9.88h-.08v9.88h-3.82v-13.2h5.92l7.57,9.89h.07v-9.89h3.82v13.2h0Z"
    fill="#9b9c9c" fill-rule="evenodd"/>
  <path
    d="M240.72,36.63h-5.82l-7.66-9.88h-.08v9.88h-3.82v-13.2h5.92l7.57,9.89h.07v-9.89h3.82v13.2h0Z"
    fill="#9b9c9c" fill-rule="evenodd"/>
  <path
    d="M205.83,36.8c-1.22,0-2.28-.03-3.17-.09-.89-.06-1.64-.17-2.26-.34-.62-.17-1.12-.41-1.51-.71-.39-.3-.69-.69-.9-1.18-.21-.48-.36-1.07-.43-1.75-.07-.69-.11-1.5-.11-2.44v-.39c0-.95,.04-1.77,.12-2.46,.08-.69,.22-1.28,.44-1.76,.22-.48,.52-.87,.91-1.17,.39-.3,.89-.53,1.51-.7,.62-.17,1.37-.28,2.26-.33,.89-.06,1.93-.09,3.15-.09h.59c1.02,0,1.91,.02,2.67,.07,.76,.04,1.42,.12,1.97,.24,.55,.12,1,.27,1.36,.48s.64,.46,.85,.77c.21,.31,.35,.68,.43,1.11,.08,.43,.12,.94,.12,1.51v.51h-3.74v-.16c0-.3-.05-.55-.14-.76-.09-.2-.28-.37-.55-.49-.27-.12-.66-.21-1.15-.26-.49-.05-1.14-.08-1.95-.08h-.32c-.73,0-1.36,.01-1.87,.04-.52,.03-.95,.08-1.29,.16-.35,.09-.62,.21-.82,.36-.2,.16-.35,.37-.45,.64-.1,.27-.16,.6-.19,1-.03,.4-.04,.88-.04,1.43v.23c0,.54,.01,1.01,.04,1.4,.03,.39,.09,.72,.19,.98,.1,.27,.25,.48,.45,.64,.2,.16,.47,.28,.82,.36,.34,.09,.77,.14,1.29,.16,.52,.03,1.14,.04,1.87,.04h.32c.6,0,1.11-.01,1.54-.03,.43-.02,.79-.06,1.09-.1,.29-.05,.53-.11,.71-.2,.18-.09,.31-.19,.41-.32,.1-.13,.16-.28,.19-.45,.03-.17,.05-.37,.05-.61v-.37h-5.05v-2.54h8.75v2.93c0,.63-.04,1.19-.13,1.67-.08,.48-.23,.89-.45,1.24-.21,.35-.5,.64-.86,.86-.36,.23-.82,.41-1.38,.55-.56,.14-1.23,.23-2,.29-.78,.06-1.69,.09-2.72,.09h-.59Z"
    fill="#9b9c9c" fill-rule="evenodd"/>
  <path d="M220.52,36.65h-3.87v-13.1h3.87v13.1Z" fill="#9b9c9c"
        fill-rule="evenodd"/>
  <path
    d="M52.26,36.79c-1.07,0-2.01-.03-2.82-.09-.81-.06-1.51-.16-2.09-.29-.59-.14-1.07-.33-1.46-.57-.39-.24-.69-.54-.92-.89-.23-.36-.39-.78-.48-1.28-.09-.49-.14-1.07-.14-1.73v-8.55h3.89v7.28c0,.45,.02,.84,.05,1.16,.03,.32,.09,.6,.19,.83,.1,.23,.24,.41,.42,.55,.18,.14,.42,.25,.72,.33,.3,.08,.67,.13,1.11,.16,.44,.03,.96,.04,1.57,.04h.33c.61,0,1.13-.01,1.57-.04,.44-.03,.81-.08,1.11-.16,.3-.08,.54-.18,.72-.33,.18-.14,.32-.33,.42-.55,.1-.23,.16-.5,.19-.83,.03-.33,.05-.71,.05-1.15v-7.28h3.89v8.54c0,.65-.04,1.23-.13,1.72-.09,.5-.24,.93-.47,1.28-.23,.36-.53,.66-.91,.89-.38,.24-.87,.43-1.45,.57-.59,.14-1.29,.24-2.1,.29-.82,.06-1.76,.09-2.85,.09h-.4Z"
    fill="#9b9c9c" fill-rule="evenodd"/>
  <path
    d="M80.6,36.63h-5.82l-7.66-9.9h-.08v9.9h-3.82v-13.24h5.92l7.57,9.91h.08v-9.91h3.82v13.24h0Z"
    fill="#9b9c9c" fill-rule="evenodd"/>
  <path
    d="M92.08,30.07c.67,0,1.21-.02,1.6-.06,.4-.04,.7-.13,.91-.26,.21-.13,.34-.31,.41-.54,.06-.23,.09-.54,.09-.92v-.23c0-.37-.03-.68-.09-.91-.06-.23-.2-.41-.41-.53-.21-.12-.51-.21-.91-.25-.4-.04-.93-.06-1.59-.06h-4.85v3.76h4.85Zm6.93,6.56h-3.85v-1.07c0-.39-.02-.72-.05-1-.03-.28-.1-.51-.2-.71-.1-.19-.24-.35-.42-.47-.18-.12-.42-.21-.72-.27-.3-.06-.66-.11-1.1-.13-.44-.02-.95-.03-1.56-.03h-3.89v3.68h-3.86v-13.24h10.27c1.08,0,1.97,.07,2.66,.2,.7,.13,1.24,.36,1.65,.67,.4,.31,.68,.73,.83,1.25,.15,.52,.23,1.15,.23,1.91v.47c0,.52-.04,.97-.12,1.36-.08,.39-.21,.72-.4,1.01-.18,.28-.42,.51-.71,.7-.29,.18-.64,.32-1.06,.42v.08c.46,.08,.84,.17,1.14,.29,.3,.12,.53,.29,.7,.52,.17,.23,.28,.53,.35,.91,.06,.37,.09,.85,.09,1.44v2.02Z"
    fill="#9b9c9c" fill-rule="evenodd"/>
  <path
    d="M115.92,36.63h-14.39v-13.24h14.16v2.93h-10.31v2.25h9.76v2.76h-9.76v2.28h10.53v3.01Z"
    fill="#9b9c9c" fill-rule="evenodd"/>
  <path
    d="M128.93,31.5l-2.7-5.31h-.09l-2.68,5.31h5.47Zm6.82,5.14h-4.2l-1.21-2.38h-8.26l-1.19,2.38h-4.17l7.11-13.24h4.78l7.15,13.24Z"
    fill="#9b9c9c" fill-rule="evenodd"/>
  <path d="M149.93,36.64h-12.75v-13.24h3.89v10.16h8.86v3.08h0Z" fill="#9b9c9c"
        fill-rule="evenodd"/>
</svg>
